<svg width="40" height="40" viewBox="0 0 40 40" fill="none" xmlns="http://www.w3.org/2000/svg">
<rect width="40" height="40" rx="20" fill="black"/>
<path d="M20 26.6667H27.5" stroke="white" stroke-linecap="round" stroke-linejoin="round"/>
<path d="M23.75 12.9167C24.0815 12.5851 24.5312 12.3989 25 12.3989C25.2321 12.3989 25.462 12.4446 25.6765 12.5335C25.891 12.6223 26.0858 12.7525 26.25 12.9167C26.4142 13.0808 26.5444 13.2757 26.6332 13.4902C26.722 13.7046 26.7678 13.9345 26.7678 14.1667C26.7678 14.3988 26.722 14.6287 26.6332 14.8432C26.5444 15.0576 26.4142 15.2525 26.25 15.4167L15.8333 25.8333L12.5 26.6667L13.3333 23.3333L23.75 12.9167Z" stroke="white" stroke-linecap="round" stroke-linejoin="round"/>
</svg>
