<svg width="21" height="20" viewBox="0 0 21 20" fill="none" xmlns="http://www.w3.org/2000/svg">
<path d="M15.5 6.66667C15.5 5.34059 14.9732 4.06882 14.0355 3.13113C13.0979 2.19345 11.8261 1.66667 10.5 1.66667C9.17392 1.66667 7.90215 2.19345 6.96447 3.13113C6.02678 4.06882 5.5 5.34059 5.5 6.66667C5.5 12.5 3 14.1667 3 14.1667H18C18 14.1667 15.5 12.5 15.5 6.66667Z" stroke="black" stroke-linecap="round" stroke-linejoin="round"/>
<path d="M11.9417 17.5C11.7952 17.7526 11.5849 17.9622 11.3319 18.1079C11.0789 18.2537 10.792 18.3304 10.5 18.3304C10.208 18.3304 9.92117 18.2537 9.66816 18.1079C9.41515 17.9622 9.20486 17.7526 9.05835 17.5" stroke="black" stroke-linecap="round" stroke-linejoin="round"/>
</svg>
