<svg width="17" height="17" viewBox="0 0 17 17" fill="none" xmlns="http://www.w3.org/2000/svg">
<path d="M8.81069 0.412283C8.75353 0.359071 8.68562 0.316854 8.61086 0.288048C8.53609 0.259243 8.45594 0.244415 8.375 0.244415C8.29406 0.244415 8.21391 0.259243 8.13914 0.288048C8.06438 0.316854 7.99647 0.359071 7.93931 0.412283L0.554693 7.26899C0.497583 7.32215 0.452318 7.38524 0.421485 7.45466C0.390652 7.52407 0.374857 7.59845 0.375001 7.67353V15.673C0.375001 15.8246 0.439836 15.9699 0.555243 16.0771C0.67065 16.1842 0.827175 16.2444 0.990385 16.2444H6.52885C6.69206 16.2444 6.84858 16.1842 6.96399 16.0771C7.0794 15.9699 7.14423 15.8246 7.14423 15.673V11.1019H9.60577V15.673C9.60577 15.8246 9.6706 15.9699 9.78601 16.0771C9.90142 16.1842 10.0579 16.2444 10.2212 16.2444H15.7596C15.9228 16.2444 16.0794 16.1842 16.1948 16.0771C16.3102 15.9699 16.375 15.8246 16.375 15.673V7.67353C16.3751 7.59845 16.3593 7.52407 16.3285 7.45466C16.2977 7.38524 16.2524 7.32215 16.1953 7.26899L14.5288 5.7228V1.95961C14.5288 1.80807 14.464 1.66273 14.3486 1.55558C14.2332 1.44842 14.0767 1.38822 13.9135 1.38822H12.6827C12.5195 1.38822 12.363 1.44842 12.2475 1.55558C12.1321 1.66273 12.0673 1.80807 12.0673 1.95961V3.43723L8.81069 0.412283ZM1.60577 15.1016V7.91009L8.375 1.62478L15.1442 7.91009V15.1016H10.8365V10.5305C10.8365 10.379 10.7717 10.2336 10.6563 10.1265C10.5409 10.0193 10.3844 9.9591 10.2212 9.9591H6.52885C6.36564 9.9591 6.20911 10.0193 6.0937 10.1265C5.9783 10.2336 5.91346 10.379 5.91346 10.5305V15.1016H1.60577Z" fill="black"/>
</svg>
