<svg width="21" height="20" viewBox="0 0 21 20" fill="none" xmlns="http://www.w3.org/2000/svg">
<path d="M12.1667 1.66667H5.50004C5.05801 1.66667 4.63409 1.84226 4.32153 2.15482C4.00897 2.46738 3.83337 2.89131 3.83337 3.33333V16.6667C3.83337 17.1087 4.00897 17.5326 4.32153 17.8452C4.63409 18.1577 5.05801 18.3333 5.50004 18.3333H15.5C15.9421 18.3333 16.366 18.1577 16.6786 17.8452C16.9911 17.5326 17.1667 17.1087 17.1667 16.6667V6.66667L12.1667 1.66667Z" stroke="black" stroke-linecap="round" stroke-linejoin="round"/>
<path d="M12.1666 1.66667V6.66667H17.1666" stroke="black" stroke-linecap="round" stroke-linejoin="round"/>
<path d="M13.8333 10.8333H7.16663" stroke="black" stroke-linecap="round" stroke-linejoin="round"/>
<path d="M13.8333 14.1667H7.16663" stroke="black" stroke-linecap="round" stroke-linejoin="round"/>
<path d="M8.83329 7.5H7.99996H7.16663" stroke="black" stroke-linecap="round" stroke-linejoin="round"/>
</svg>
