<?xml version="1.0" standalone="no"?>
<!DOCTYPE svg PUBLIC "-//W3C//DTD SVG 20010904//EN"
 "http://www.w3.org/TR/2001/REC-SVG-20010904/DTD/svg10.dtd">
<svg version="1.0" xmlns="http://www.w3.org/2000/svg"
 width="542.000000pt" height="542.000000pt" viewBox="0 0 542.000000 542.000000"
 preserveAspectRatio="xMidYMid meet">
<metadata>
Created by potrace 1.14, written by Peter Selinger 2001-2017
</metadata>
<g transform="translate(0.000000,542.000000) scale(0.100000,-0.100000)"
fill="#000000" stroke="none">
<path d="M2658 5205 c-2 -2 -28 -5 -58 -9 -64 -7 -136 -26 -200 -52 -68 -28
-170 -86 -170 -95 0 -5 -6 -9 -14 -9 -8 0 -54 -39 -103 -87 -88 -87 -156 -179
-207 -281 -30 -59 -87 -202 -80 -202 2 0 -1 -11 -6 -26 -6 -14 -13 -39 -16
-57 -3 -18 -8 -43 -11 -57 -15 -74 -7 -383 12 -480 5 -28 15 -96 20 -145 2
-16 4 -30 5 -30 2 0 10 -33 15 -60 2 -11 6 -31 8 -45 3 -14 10 -45 15 -70 5
-25 13 -53 17 -62 5 -13 1 -19 -17 -23 -12 -2 -75 -16 -138 -30 -63 -14 -126
-28 -139 -31 -13 -3 -32 -9 -43 -15 -10 -5 -18 -7 -18 -5 0 3 -19 -2 -42 -10
-24 -9 -50 -17 -58 -19 -67 -15 -297 -111 -362 -152 -21 -13 -40 -23 -42 -23
-3 0 -31 -18 -62 -40 -251 -175 -347 -375 -298 -615 4 -22 8 -52 8 -67 1 -14
4 -24 9 -21 4 2 7 -11 7 -30 0 -18 3 -37 7 -41 7 -7 11 -31 16 -88 1 -14 5
-25 8 -23 4 3 11 -18 34 -105 1 -3 5 -14 9 -25 23 -60 27 -73 29 -93 0 -11 4
-19 8 -16 4 2 10 -8 14 -23 9 -37 116 -257 126 -261 5 -2 9 -8 9 -13 0 -9 38
-68 51 -79 3 -3 8 -12 11 -21 17 -45 264 -319 288 -319 5 0 10 -8 10 -17 0 -9
3 -14 6 -10 5 5 24 -8 64 -43 9 -8 30 -23 46 -32 16 -10 28 -22 26 -28 -1 -7
2 -9 7 -6 5 4 17 -2 27 -11 10 -10 20 -18 23 -18 3 0 5 -4 3 -8 -1 -5 2 -6 7
-3 13 8 42 -4 35 -15 -3 -5 4 -9 15 -9 12 0 21 -5 21 -11 0 -5 4 -8 9 -4 5 3
16 -2 24 -10 9 -8 20 -15 25 -15 15 0 112 -47 107 -51 -2 -3 8 -6 22 -7 15 -1
30 -7 34 -13 3 -6 9 -10 13 -9 19 3 85 -24 79 -34 -4 -6 0 -5 9 2 10 8 19 9
22 3 3 -5 30 -14 58 -21 29 -6 60 -14 68 -17 8 -3 21 -7 29 -9 7 -1 34 -7 60
-13 25 -6 60 -13 76 -15 17 -2 30 -5 30 -6 0 -1 20 -3 44 -6 25 -2 56 -7 70
-9 14 -3 67 -8 116 -11 50 -4 93 -11 97 -18 6 -8 8 -8 8 1 0 13 26 13 46 0 6
-3 14 -3 18 0 10 10 86 10 86 0 0 -4 5 -5 12 -1 6 4 50 8 97 10 88 2 222 12
258 19 11 2 38 6 59 9 21 4 40 9 42 11 3 3 12 -1 20 -8 9 -6 13 -7 9 -1 -4 7
17 15 56 23 34 7 67 13 74 15 7 1 16 5 19 9 4 4 14 1 22 -6 12 -9 14 -9 9 0
-5 8 5 15 30 22 21 6 41 11 45 11 4 0 19 5 35 12 15 6 30 12 33 13 13 4 64 27
108 46 26 12 53 22 60 22 6 0 12 4 12 8 0 12 102 59 113 52 6 -3 7 -1 4 4 -4
6 16 26 46 44 111 71 222 168 317 279 25 29 53 62 64 74 10 11 39 53 64 91 25
39 48 72 52 75 3 3 12 20 19 38 8 17 17 32 20 32 4 0 13 16 21 35 7 19 18 31
23 28 6 -3 7 -1 3 5 -3 6 9 43 29 83 19 39 47 106 61 148 15 42 31 82 37 89 5
6 7 12 4 12 -3 0 6 33 20 73 14 39 27 81 29 92 8 49 49 181 58 187 6 4 8 8 4
8 -4 0 -3 12 3 28 41 104 46 239 13 322 -71 180 -249 330 -524 442 -105 43
-337 119 -375 123 -11 1 -27 5 -35 8 -8 4 -26 9 -40 11 -14 3 -36 7 -50 10
-58 13 -127 26 -155 29 -16 3 -29 9 -28 14 1 6 5 22 8 37 3 14 8 38 11 54 3
15 7 36 9 47 2 11 12 64 23 118 10 53 16 97 13 97 -3 0 1 5 9 10 8 5 10 10 3
10 -6 0 -9 9 -6 20 3 11 10 17 17 13 7 -4 6 -1 -1 9 -7 8 -11 17 -9 19 8 7 16
89 22 199 2 58 6 111 9 118 2 6 1 12 -3 12 -4 0 -7 27 -7 60 0 33 -3 60 -7 60
-4 0 -7 8 -6 18 1 33 -10 87 -32 157 -26 82 -110 265 -122 265 -4 0 -8 5 -8
10 0 33 -152 203 -235 265 -22 17 -42 32 -45 35 -3 3 -16 11 -29 18 -13 8 -39
23 -58 33 -47 27 -199 77 -253 85 -47 6 -178 13 -182 9z m92 -674 c0 -3 15 -6
33 -7 137 -4 294 -123 372 -280 20 -40 35 -76 34 -80 -1 -5 0 -11 1 -14 11
-30 14 -60 15 -150 0 -58 -4 -114 -9 -125 -5 -11 -10 -24 -11 -30 0 -5 -4 -18
-8 -27 -17 -43 -20 -53 -19 -60 1 -5 -1 -8 -6 -8 -4 0 -13 -13 -19 -28 -26
-59 -149 -171 -223 -204 -62 -28 -83 -32 -190 -33 -80 -1 -119 3 -165 18 -33
11 -62 23 -65 26 -3 3 -21 14 -40 25 -51 27 -146 131 -178 195 -15 31 -27 58
-27 61 0 3 -3 10 -7 15 -12 20 -29 124 -28 172 2 74 22 183 32 177 5 -3 8 0 7
7 -3 23 13 79 22 79 5 0 9 6 9 14 0 8 6 21 13 28 7 7 22 26 32 41 10 16 24 26
32 23 9 -4 11 -1 7 5 -9 15 77 91 98 85 10 -2 15 1 12 9 -5 12 16 25 39 25 4
0 21 7 38 16 17 8 37 13 45 10 8 -3 14 -1 14 4 0 5 15 10 33 12 55 5 107 5
107 -1z"/>
<path d="M2349 4303 c-13 -16 -12 -17 4 -4 9 7 17 15 17 17 0 8 -8 3 -21 -13z"/>
<path d="M3630 3460 c0 -5 5 -10 11 -10 5 0 7 5 4 10 -3 6 -8 10 -11 10 -2 0
-4 -4 -4 -10z"/>
<path d="M1510 981 c0 -6 4 -13 10 -16 6 -3 7 1 4 9 -7 18 -14 21 -14 7z"/>
<path d="M1455 949 c-4 -6 -5 -12 -2 -15 2 -3 7 2 10 11 7 17 1 20 -8 4z"/>
<path d="M2079 733 c-13 -16 -12 -17 4 -4 16 13 21 21 13 21 -2 0 -10 -8 -17
-17z"/>
<path d="M3306 738 c3 -5 10 -6 15 -3 13 9 11 12 -6 12 -8 0 -12 -4 -9 -9z"/>
<path d="M2275 660 c-3 -5 -1 -10 4 -10 6 0 11 5 11 10 0 6 -2 10 -4 10 -3 0
-8 -4 -11 -10z"/>
<path d="M2399 653 c-13 -16 -12 -17 4 -4 16 13 21 21 13 21 -2 0 -10 -8 -17
-17z"/>
<path d="M2950 661 c0 -6 4 -13 10 -16 6 -3 7 1 4 9 -7 18 -14 21 -14 7z"/>
</g>
</svg>
