<svg width="14" height="14" viewBox="0 0 14 14" fill="none" xmlns="http://www.w3.org/2000/svg">
<path d="M13.4053 7.14829C13.4053 6.59882 13.3597 6.19785 13.2609 5.78204H6.83948V8.26207H10.6087C10.5328 8.87839 10.1224 9.80656 9.21046 10.4302L9.19767 10.5133L11.228 12.0501L11.3687 12.0639C12.6605 10.8981 13.4053 9.18281 13.4053 7.14829Z" fill="#4285F4"/>
<path d="M6.83938 13.6829C8.686 13.6829 10.2362 13.0889 11.3686 12.0642L9.21036 10.4306C8.63282 10.8241 7.85767 11.0989 6.83938 11.0989C5.03075 11.0989 3.4957 9.93313 2.94849 8.32184L2.86828 8.3285L0.757101 9.92494L0.729492 9.99994C1.85418 12.183 4.16439 13.6829 6.83938 13.6829Z" fill="#34A853"/>
<path d="M2.94852 8.32181C2.80413 7.906 2.72057 7.46045 2.72057 7.0001C2.72057 6.5397 2.80413 6.0942 2.94092 5.67839L2.9371 5.58983L0.799459 3.96774L0.72952 4.00024C0.26598 4.90614 0 5.92343 0 7.0001C0 8.07677 0.26598 9.09401 0.72952 9.99991L2.94852 8.32181Z" fill="#FBBC05"/>
<path d="M6.83939 2.90138C8.12365 2.90138 8.98996 3.44342 9.48394 3.8964L11.4142 2.05491C10.2287 0.978239 8.686 0.317383 6.83939 0.317383C4.16439 0.317383 1.85418 1.81729 0.729492 4.00031L2.94089 5.67846C3.4957 4.06717 5.03075 2.90138 6.83939 2.90138Z" fill="#EB4335"/>
</svg>
