<svg width="90" height="95" viewBox="0 0 90 95" fill="none" xmlns="http://www.w3.org/2000/svg">
<g filter="url(#filter0_d_747_15567)">
<mask id="path-1-outside-1_747_15567" maskUnits="userSpaceOnUse" x="4.56274" y="34.2217" width="80" height="53" fill="black">
<rect fill="white" x="4.56274" y="34.2217" width="80" height="53"/>
<path d="M81.6895 53.7604C79.3968 59.4508 76.8011 85.3744 44.5705 84.8294C12.34 84.2844 8.93719 59.5866 7.72553 53.7604C5.57877 43.4377 25.0222 37.2217 44.9323 37.2217C64.4394 37.2217 85.8952 43.3221 81.6895 53.7604Z"/>
<path d="M81.018 50.9144C81.018 57.652 64.7095 63.1138 44.5921 63.1138C24.4746 63.1138 8.16614 57.652 8.16614 50.9144C8.16614 44.1769 24.4746 38.715 44.5921 38.715C64.7095 38.715 81.018 44.1769 81.018 50.9144Z"/>
</mask>
<path d="M81.6895 53.7604C79.3968 59.4508 76.8011 85.3744 44.5705 84.8294C12.34 84.2844 8.93719 59.5866 7.72553 53.7604C5.57877 43.4377 25.0222 37.2217 44.9323 37.2217C64.4394 37.2217 85.8952 43.3221 81.6895 53.7604Z" fill="black"/>
<path d="M81.018 50.9144C81.018 57.652 64.7095 63.1138 44.5921 63.1138C24.4746 63.1138 8.16614 57.652 8.16614 50.9144C8.16614 44.1769 24.4746 38.715 44.5921 38.715C64.7095 38.715 81.018 44.1769 81.018 50.9144Z" fill="url(#paint0_linear_747_15567)"/>
<path d="M81.6895 53.7604L79.8179 53.0063L81.6895 53.7604ZM7.72553 53.7604L5.74996 54.1712L7.72553 53.7604ZM44.9323 37.2217V39.2395V37.2217ZM79.8179 53.0063C79.4808 53.8429 79.157 54.9957 78.8162 56.2036C78.4618 57.4599 78.058 58.8952 77.5397 60.4566C76.5037 63.5782 75.0312 67.1359 72.7012 70.4795C68.1261 77.045 60.0568 83.0732 44.6046 82.8119L44.5364 86.847C61.3148 87.1307 70.6586 80.4695 76.0122 72.7868C78.6466 69.0064 80.2673 65.0503 81.37 61.7278C81.9211 60.0672 82.348 58.5479 82.7003 57.2994C83.0662 56.0025 83.3251 55.1004 83.5611 54.5145L79.8179 53.0063ZM44.6046 82.8119C29.0957 82.5496 20.7938 76.5258 16.1522 70.0945C11.4176 63.5343 10.3258 56.3534 9.7011 53.3495L5.74996 54.1712C6.33693 56.9937 7.55239 65.0747 12.8797 72.4562C18.3001 79.9666 27.8148 86.5642 44.5364 86.847L44.6046 82.8119ZM9.7011 53.3495C9.31968 51.5155 9.8442 49.8249 11.333 48.1716C12.8771 46.457 15.4139 44.8565 18.8097 43.4925C25.581 40.7726 35.1456 39.2395 44.9323 39.2395V35.2038C34.8089 35.2038 24.6967 36.7787 17.3055 39.7476C13.62 41.2279 10.4541 43.1169 8.33412 45.471C6.15888 47.8865 5.058 50.8439 5.74996 54.1712L9.7011 53.3495ZM44.9323 39.2395C54.5242 39.2395 64.4987 40.7455 71.4718 43.4573C74.9815 44.8222 77.5151 46.4107 78.9229 48.0755C80.2247 49.6151 80.5565 51.173 79.8179 53.0063L83.5611 54.5145C84.9253 51.1286 84.1523 48.0097 82.0045 45.4697C79.9625 43.0548 76.7015 41.161 72.9346 39.6961C65.3545 36.7481 54.8475 35.2038 44.9323 35.2038V39.2395ZM79.0001 50.9144C79.0001 51.7196 78.515 52.8044 76.9028 54.081C75.3123 55.3404 72.8861 56.563 69.7083 57.6273C63.3735 59.7489 54.4935 61.096 44.5921 61.096V65.1317C54.8081 65.1317 64.141 63.7478 70.9899 61.4541C74.4039 60.3107 77.3121 58.9046 79.4081 57.2449C81.4824 55.6025 83.0358 53.4779 83.0358 50.9144H79.0001ZM44.5921 61.096C34.6906 61.096 25.8106 59.7489 19.4759 57.6273C16.298 56.563 13.8718 55.3404 12.2813 54.081C10.6691 52.8044 10.184 51.7196 10.184 50.9144H6.1483C6.1483 53.4779 7.70176 55.6025 9.77605 57.2449C11.872 58.9046 14.7802 60.3107 18.1942 61.4541C25.0431 63.7478 34.376 65.1317 44.5921 65.1317V61.096ZM10.184 50.9144C10.184 50.1092 10.6691 49.0244 12.2813 47.7478C13.8718 46.4884 16.298 45.2658 19.4759 44.2015C25.8106 42.0799 34.6906 40.7328 44.5921 40.7328V36.6971C34.376 36.6971 25.0431 38.081 18.1942 40.3747C14.7802 41.5181 11.872 42.9242 9.77605 44.5839C7.70175 46.2263 6.1483 48.3509 6.1483 50.9144H10.184ZM44.5921 40.7328C54.4935 40.7328 63.3735 42.0799 69.7083 44.2015C72.8861 45.2658 75.3123 46.4884 76.9028 47.7478C78.515 49.0244 79.0001 50.1092 79.0001 50.9144H83.0358C83.0358 48.3509 81.4824 46.2263 79.4081 44.5839C77.3121 42.9242 74.4039 41.5181 70.9899 40.3747C64.141 38.081 54.8081 36.6971 44.5921 36.6971V40.7328Z" fill="black" mask="url(#path-1-outside-1_747_15567)"/>
<path d="M61.6593 22.7954C61.6593 28.2847 59.2467 39.5863 55.8092 49.564C54.0947 54.5405 52.148 59.1192 50.1603 62.4345C49.1649 64.0947 48.1848 65.3944 47.2512 66.2672C46.3048 67.1518 45.518 67.4953 44.8928 67.4953C44.2676 67.4953 43.4808 67.1518 42.5345 66.2672C41.6008 65.3944 40.6207 64.0947 39.6253 62.4345C37.6376 59.1192 35.691 54.5405 33.9764 49.564C30.5389 39.5863 28.1264 28.2847 28.1264 22.7954C28.1264 11.8994 35.7626 3.31849 44.8928 3.31849C54.023 3.31849 61.6593 11.8994 61.6593 22.7954ZM44.8928 36.4158C50.8026 36.4158 55.4981 31.3654 55.4981 25.2562C55.4981 19.1471 50.8026 14.0967 44.8928 14.0967C38.9831 14.0967 34.2876 19.1471 34.2876 25.2562C34.2876 31.3654 38.9831 36.4158 44.8928 36.4158Z" fill="#1ECBE1" stroke="black" stroke-width="2.01784"/>
</g>
<defs>
<filter id="filter0_d_747_15567" x="0.544189" y="0.30957" width="88.6973" height="94.5461" filterUnits="userSpaceOnUse" color-interpolation-filters="sRGB">
<feFlood flood-opacity="0" result="BackgroundImageFix"/>
<feColorMatrix in="SourceAlpha" type="matrix" values="0 0 0 0 0 0 0 0 0 0 0 0 0 0 0 0 0 0 127 0" result="hardAlpha"/>
<feOffset dy="3"/>
<feGaussianBlur stdDeviation="2.5"/>
<feColorMatrix type="matrix" values="0 0 0 0 0 0 0 0 0 0 0 0 0 0 0 0 0 0 0.15 0"/>
<feBlend mode="normal" in2="BackgroundImageFix" result="effect1_dropShadow_747_15567"/>
<feBlend mode="normal" in="SourceGraphic" in2="effect1_dropShadow_747_15567" result="shape"/>
</filter>
<linearGradient id="paint0_linear_747_15567" x1="34.6801" y1="53.0387" x2="-4.89921" y2="104.067" gradientUnits="userSpaceOnUse">
<stop stop-color="#CBCBD4"/>
<stop offset="1" stop-color="#CBCBD4" stop-opacity="0"/>
<stop offset="1" stop-color="#CBCBD4" stop-opacity="0.488524"/>
</linearGradient>
</defs>
</svg>
